<svg xmlns="http://www.w3.org/2000/svg" width="261.363" height="98.767" viewBox="0 0 261.363 98.767">
  <g id="Group_6" data-name="Group 6" transform="translate(-1373.561 -921.832)">
    <path id="Path_1" data-name="Path 1" d="M1634.924,937.122l-8.95-.182-3.177-8.575-.161-.457-.168.445-3.338,8.443-9.29-.192,6.607,5.8-4.729,10.986,10.613-8.183.329.006,10.235,8.211L1628.5,942.57Zm-15.188,6.241-.491,0-.485-.006,1.181-3.872-1.032-.016.1-.346.108-.344,3.022.058-.1.34-.1.342-1.027-.016Zm5.339.071-.435-.007-.435-.006,1.225-3.816-1.9,3.807-.492,0-.491-.009.5-3.913-1.181,3.907-.435-.007-.442-.009,1.461-4.542.7.013.7.016-.457,3.338,1.637-3.319.7.015.709.012Z" fill="#fff"/>
    <path id="Path_2" data-name="Path 2" d="M1393.433,949.911h-.021l.021.034Z" fill="#fff"/>
    <path id="Path_3" data-name="Path 3" d="M1574.15,973.841c-52.388,6.035-110.872,16.571-168.012,34.09q-8.046,2.475-15.931,5.088l18.971,7.58c10.746-3.792,21.7-7.388,32.744-10.772,45-13.812,91.391-24.2,134.516-31.843Z" fill="#fff"/>
    <path id="Path_4" data-name="Path 4" d="M1500.25,1011.371a8.083,8.083,0,0,1-1.274,3.2,3.142,3.142,0,0,1-2.032,1.4c-1.033.162-1.666-.056-1.9-.659a5.978,5.978,0,0,1,.355-3.316l1.995-6.868a11.341,11.341,0,0,1,1.492-3.55,3,3,0,0,1,2.094-1.14,1.31,1.31,0,0,1,1.61.793,5.678,5.678,0,0,1-.174,3.076l4.712-.665a9.779,9.779,0,0,0,.541-3.331,3.133,3.133,0,0,0-.74-2.042q-1.334-1.521-5.494-.976a10.177,10.177,0,0,0-5.968,2.411q-1.939,1.893-3.394,6.823l-2.033,6.923a8.192,8.192,0,0,0-.4,2.676,3.2,3.2,0,0,0,1.007,2.291q1.64,1.418,5.911.727a10.819,10.819,0,0,0,6.091-2.737,9.2,9.2,0,0,0,2.48-5.779Z" fill="#fff"/>
    <path id="Path_5" data-name="Path 5" d="M1514.975,995.832l-11.051,21.824,2.561-.417,2.529-.408,2.144-4.676,5.8-.9-.154,4.32,2.3-.37,2.269-.363.149-19.865-3.25.422Zm2.1,12.391-4.432.662,4.78-10.358Z" fill="#fff"/>
    <path id="Path_6" data-name="Path 6" d="M1533.591,993.408l-3.077.4-2.324.3-5.676,20.546,2.369-.383,2.355-.379,2.313-8.488h.006l.484-.074c1.195-.174,1.965-.091,2.307.255s.36,1.06.055,2.148c-.236.866-.422,1.64-.559,2.315a15.617,15.617,0,0,0-.311,1.774,9.488,9.488,0,0,0-.031,1.371l2.331-.379,2.306-.368a7.214,7.214,0,0,1,.068-1.17c.05-.483.15-1.157.3-2.027.137-.706.305-1.445.51-2.222q.624-2.289-.584-3.108a4.731,4.731,0,0,0-2.73-.538,9.008,9.008,0,0,0,3.27-1.354,5.7,5.7,0,0,0,2.207-3.273l.056-.2a8.393,8.393,0,0,0,.341-2.518,2.67,2.67,0,0,0-.77-1.921Q1537.481,992.9,1533.591,993.408Zm1.243,5.768-.112.416a3.2,3.2,0,0,1-1.168,1.76,5,5,0,0,1-2.344.86l-.8.115,1.573-5.768.659-.087c1.106-.155,1.821-.019,2.144.4S1535.132,998.051,1534.834,999.176Z" fill="#fff"/>
    <path id="Path_7" data-name="Path 7" d="M1559.423,990.045l-2.156.273-2.1,8.012-4.308.619,2.133-8.071-2.207.289-2.231.292-5.283,19.859,2.269-.367,2.244-.36,2.287-8.668,4.326-.637-2.25,8.6,2.2-.352,2.188-.352,5.041-19.421Z" fill="#fff"/>
    <path id="Path_8" data-name="Path 8" d="M1565.728,989.218l-2.108.277-5.01,19.35,2.156-.346,2.139-.345,4.931-19.21Z" fill="#fff"/>
    <path id="Path_9" data-name="Path 9" d="M1579.414,993.128l.05-.189a8.484,8.484,0,0,0,.292-2.35,2.653,2.653,0,0,0-.677-1.8c-.783-.768-2.306-1.01-4.575-.71l-2.691.352-2.033.261-4.891,19.141,2.069-.329,2.058-.333,1.989-7.906.006,0,.429-.062q1.568-.23,2.007.254c.3.327.318,1,.063,2.011q-.307,1.213-.485,2.16a14.262,14.262,0,0,0-.261,1.654,9.908,9.908,0,0,0-.031,1.28l2.045-.326,2.02-.329a7.172,7.172,0,0,1,.05-1.094c.05-.451.13-1.079.261-1.887.112-.659.254-1.352.428-2.073.367-1.42.194-2.4-.515-2.918a3.958,3.958,0,0,0-2.394-.52,7.378,7.378,0,0,0,2.859-1.243A5.26,5.26,0,0,0,1579.414,993.128Zm-3.809.352-.087.385a2.981,2.981,0,0,1-1.02,1.64,4.187,4.187,0,0,1-2.052.783l-.7.107,1.367-5.386.573-.075c.969-.131,1.6,0,1.883.386A2.736,2.736,0,0,1,1575.6,993.48Z" fill="#fff"/>
    <path id="Path_10" data-name="Path 10" d="M1578.37,1005.662l9.672-1.558.342-1.4.329-1.393-5.625.88,1.33-5.337,5.022-.736.342-1.4.336-1.38-5,.718,1.206-4.826,5.352-.722.342-1.38.323-1.37-9.312,1.215Z" fill="#fff"/>
    <path id="Path_11" data-name="Path 11" d="M1392.184,958.705c.322-.04.64-.081.944-.105l1.163-.161,2.541-.336,4.165-.581c.448-.063.883-.121,1.312-.178,7.906-1.088,12.139-1.665,12.805-1.746.1-.013.2-.022.31-.034.658-.091,1.336-.174,2.019-.252q3.712-.533,7.616-1c.789-.112,1.584-.227,2.386-.329,2.169-.277,4.382-.553,6.625-.823,15.2-1.946,21.809-2.748,38.833-4.743-25.776,3.566-34.711,5.056-42.213,6.283-6.334,1.048-10.753,1.788-13.164,2.21l-.039,0-10.622,1.372L1423.5,959.8c3.445-.589,6.707-1.134,9.82-1.643l.02-.006,1.093-.172h-.01c15.354-2.495,26.689-4.023,34.762-4.738,5.316-.667,9.97-.031,11.664,2.4,3.485,5-2.508,14.487-11.064,20.459s-22.167,8.3-25.653,3.3a8.4,8.4,0,0,1-1.212-6.009l-23.947,2.11c-1.265,3.445-1.386,6.708-.154,9.557,4.684,10.833,27.128,11.552,50.129,1.6s37.85-26.793,33.165-37.626c-.062-.144-.141-.278-.209-.418q5.745-.785,11.426-1.494l-18.915,28.9c1.511-.283,3.027-.56,4.55-.818,3.07-.531,6.11-1.059,9.149-1.569l1.6-.236q6.673-1.058,13.269-1.94l12.3-10.511,11.636-.891-5.488,9.143q6.825-.77,13.562-1.345l18.152-31.666-20.694.82-39.5,32.642,15.546-24.251q6.5-.668,12.91-1.24v0l.007.006,7.907-6.838-5.1.247-.042.02c-17.73,1.1-38.047,2.807-62.121,5.353q-11.646,1.236-24.373,2.722l.3-.17a85.67,85.67,0,0,1,9.622-6.315c16.027-9.066,31.734-11.615,35.085-5.692a4.7,4.7,0,0,1,.355.8c.083.145.176.278.252.43l15.5-1.072a11.277,11.277,0,0,0-5.029-8.043,28.208,28.208,0,0,0-10.367-3.506c-7.912-.821-16.858.165-27.039,3.266-4.413,1.548-9.268,3.438-14.588,5.7a303.441,303.441,0,0,0-31.385,16.729l.262-.171c-.174.106-.362.217-.541.329l21.575-1.586c-5.768.688-11.7,1.412-17.84,2.183-2.175.264-4.388.544-6.626.842q-3.218.383-6.439.8-1.752.252-3.562.5c-1.218.146-2.431.3-3.636.451-.609.09-1.2.182-1.791.273v-.031c-2.336.292-4.7.6-7.072.914-.877.1-1.766.211-2.643.323-1.385.171-2.778.345-4.17.525q-1.913.265-3.854.525-1.874.243-3.816.482-2.256.294-4.593.621c-1.7.23-4.221.566-7.571,1.01l-1.119.14-3.388.464,14.172,3.039a30.557,30.557,0,0,1,4.121-.7C1391.959,958.731,1392.066,958.721,1392.184,958.705Zm166.046-17.391-8.751,14.5-8.908.621Z" fill="#fff"/>
    <path id="Path_12" data-name="Path 12" d="M1600.877,937.74c-2.647-.858-8.366-1.342-17.329-1.452l-7.788-.027-18.4,31.383q6.181-.532,12.228-.886c.062,0,.117-.01.167-.013l14.358-24.959,5.508.211a.952.952,0,0,0,.124.038,6.278,6.278,0,0,1,5.631,4.546c.548,1.89-.03,4.237-1.746,7.059-3.344,5.985-9.777,10.7-19.511,14.19l6.191,11.2c.683,1.629,2.5,2.338,5.445,2.132l13.867-1.628c2.623-1.511,4.033-2.968,4.239-4.395l-12.152,1.343-5.457-8.684c11.61-5.525,18.628-11.891,21.376-19.2C1609.119,943.458,1606.9,939.853,1600.877,937.74Z" fill="#fff"/>
  </g>
</svg>
